<?xml version="1.0" encoding="UTF-8"?>
<svg id="_Шар_1" data-name="Шар_1" xmlns="http://www.w3.org/2000/svg" viewBox="0 0 224 193.3">
  <defs>
    <style>
      .cls-1 {
        fill: #52b154;
      }

      .cls-2 {
        fill: #14253c;
      }

      .cls-3 {
        fill: #eae45b;
      }
    </style>
  </defs>
  <polygon class="cls-2" points="16.8 22.9 48.8 22.9 83 74.8 87.5 74.8 122.6 22.9 155.5 22.9 102.1 97.9 158.6 172.7 122.6 172.7 83.5 109 83.5 116.6 48.3 172.7 14.1 172.7 67.9 95.6 16.8 22.9"/>
  <g>
    <rect class="cls-3" x="78.6" y="71.2" width="14.4" height="51.1"/>
    <rect class="cls-3" x="78.6" y="74.9" width="14.4" height="43.9" transform="translate(182.6 11) rotate(90)"/>
  </g>
  <g>
    <polygon class="cls-2" points="189.6 20.6 185.8 28.2 182.6 20.6 181.4 20.6 178.5 20.6 178.5 35.7 182.6 35.7 182.6 29.6 184.5 35.7 187 35.7 189.6 28.7 189.6 35.7 193.7 35.7 193.7 20.6 189.6 20.6"/>
    <polygon class="cls-2" points="167.1 24.4 170.4 24.4 170.4 35.7 174.5 35.7 174.5 24.4 177.7 24.4 177.7 20.6 167.1 20.6 167.1 24.4"/>
  </g>
  <g>
    <path class="cls-1" d="M209.9,49.9c-1.8,5.2-3.5,10.6-5.6,15.7-3.3,8-6.3,16.4-10.7,23.8-7,11.8-18.6,18-31.5,21.5-5.1,1.4-10.2,2.3-16.9,3.8,5.8-11.7,14.3-19.2,21-28.2-10.9,5.9-21,12.6-28.3,25-.6-1.7-.9-2.3-1.1-3-4.2-18,4.2-35.9,20.4-44.9,11.5-6.3,23.9-9.3,36.4-12.1,4.9-1.1,9.9-2.1,14.8-3.1.4.5.9,1,1.3,1.5Z"/>
    <path class="cls-1" d="M198.5,154.4c-5.8.5-10,1.3-14.1,1.1-16.1-1-29.7-6.7-38.3-21.2-3.4-5.7-2.8-6.9,3.6-8,18.8-3.1,32.5,5.1,43.2,19.8,1.6,2.2,3.1,4.5,5.7,8.3Z"/>
  </g>
</svg>