<?xml version="1.0" encoding="UTF-8"?>
<svg id="_Шар_1" data-name="Шар_1" xmlns="http://www.w3.org/2000/svg" viewBox="0 0 512 215.1">
  <defs>
    <style>
      .cls-1 {
        fill: #52b154;
      }

      .cls-2 {
        fill: #14253c;
      }

      .cls-3 {
        fill: #eae45b;
      }
    </style>
  </defs>
  <path class="cls-2" d="M52.5,37.5c-10.1-4.3-44.2-2.3-44.2-2.3,3.1.2,0,86.9,0,86.9h30s36.8-.9,40.4-35.5c3.6-34.7-16.1-44.7-26.2-49.1ZM62.2,93.9c-5,21.9-28.5,20.2-35.6,19.2s-2-1.2-2-2.3V46c0-1.6,1.3-2.8,2.9-2.7,5.5.4,17.2,1.6,23.1,5.4,7.8,5,17.5,19.4,11.6,45.3Z"/>
  <path class="cls-2" d="M128.7,33.1c-22.7,0-41.1,20.4-41.1,45.5s18.4,45.5,41.1,45.5,41.1-20.4,41.1-45.5-18.4-45.5-41.1-45.5ZM128.6,115.3c-15.2,0-27.6-16.4-27.6-36.7s12.3-36.7,27.6-36.7,27.6,16.4,27.6,36.7-12.3,36.7-27.6,36.7Z"/>
  <path class="cls-2" d="M223.7,76.3s17.7-7.1,15.3-21.8c-2.3-14.3-10.7-21.4-59-19.7,2.5,28.4,2.3,57.5,0,87.4,0,0,45.5,2.5,54.4-6.8,7.4-7.8,15.6-34.3-10.7-39ZM197.2,43.8s29.7-3.6,27.7,16.1c-1.7,17.7-27.7,12.2-27.7,12.2v-28.3ZM229.6,99.2c-2,20.7-32.4,14.3-32.4,14.3v-33.1s34.7-4.2,32.4,18.8Z"/>
  <path class="cls-2" d="M253,34.8s0,0,0,0c-.2,0-.2,0,0,0Z"/>
  <path class="cls-2" d="M296.3,84.5s32.9-12.1,12.6-38.5c-3.7-4.8-11.8-9.4-17.9-10.2-17.6-2.3-36.1-1-37.9-.9,3.1,1.3,5.6,85.6,0,87.3-5.7,1.7,19.8,0,19.8,0,0,0-6.1-29.5,0-35.1h9.8l20.8,35.1h19.2c-11.4-14.4-22.3-28.4-26.3-37.7ZM270.7,77.7v-34.2c30.8-4,33.7,14.7,28,27-5.7,12.4-28,7.2-28,7.2Z"/>
  <path class="cls-2" d="M329.5,34.8c2.8,28.2,2.7,57.4,0,87.6h54.4v-10.6l-37.6,1v-32.1h29.6v-9.2l-29.8.6v-28.1l35.9-.6v-8.8h-52.5Z"/>
  <g>
    <polygon class="cls-2" points="393.4 34.8 412.1 34.8 432.1 65.1 434.7 65.1 455.3 34.8 474.5 34.8 443.3 78.6 476.3 122.4 455.3 122.4 432.4 85.2 432.4 89.6 411.8 122.4 391.8 122.4 423.3 77.3 393.4 34.8"/>
    <g>
      <rect class="cls-3" x="429.5" y="63.1" width="8.5" height="29.9"/>
      <rect class="cls-3" x="429.5" y="65.2" width="8.5" height="25.7" transform="translate(511.8 -355.8) rotate(90)"/>
    </g>
    <g>
      <polygon class="cls-2" points="494.5 33.4 492.3 37.8 490.4 33.4 489.7 33.4 488 33.4 488 42.3 490.4 42.3 490.4 38.7 491.5 42.3 493 42.3 494.5 38.2 494.5 42.3 496.9 42.3 496.9 33.4 494.5 33.4"/>
      <polygon class="cls-2" points="481.3 35.7 483.2 35.7 483.2 42.3 485.6 42.3 485.6 35.7 487.5 35.7 487.5 33.4 481.3 33.4 481.3 35.7"/>
    </g>
    <g>
      <path class="cls-1" d="M506.4,50.6c-1.1,3.1-2,6.2-3.3,9.2-1.9,4.7-3.7,9.6-6.3,13.9-4.1,6.9-10.9,10.5-18.4,12.6-3,.8-6,1.3-9.9,2.2,3.4-6.8,8.4-11.3,12.3-16.5-6.4,3.4-12.3,7.4-16.5,14.6-.4-1-.5-1.3-.6-1.7-2.5-10.5,2.5-21,11.9-26.3,6.7-3.7,14-5.5,21.3-7.1,2.9-.6,5.8-1.2,8.7-1.8.3.3.5.6.8.9Z"/>
      <path class="cls-1" d="M499.7,111.7c-3.4.3-5.8.8-8.3.6-9.4-.6-17.4-3.9-22.4-12.4-2-3.4-1.7-4.1,2.1-4.7,11-1.8,19,3,25.3,11.6.9,1.3,1.8,2.6,3.3,4.9Z"/>
    </g>
  </g>
  <path class="cls-2" d="M5.6,143.3h6.2s-2.1,13.7,2.2,14.5h7.8v-14.5h6.1v31.7h-6v-11.9s-13.8,3.6-16-5.3l-.3-14.6Z"/>
  <polygon class="cls-2" points="34.1 143.3 40 143.3 40 165.8 54 143.3 60.5 143.3 60.5 175.3 54.1 175.3 54.1 153.1 40.5 175.3 34.1 175.3 34.1 143.3"/>
  <path class="cls-2" d="M90,152.3h6.9s-3.7-9.6-14.2-9.6-18.1,7.2-18.2,17.7,19.2,24.8,32.4,6h-7.2c0-.1-3.4,4.4-9.9,3.6s-12.7-10.1-6.6-17.6c6.1-7.5,13.8-3.3,16.8-.1Z"/>
  <polygon class="cls-2" points="98.4 143.3 116.8 143.3 116.8 148.6 110.8 148.6 110.8 175.3 104.3 175.3 104.3 148.8 98.7 148.8 98.4 143.3"/>
  <path class="cls-2" d="M134.2,142.6c-9.3,0-16.8,7.5-16.8,16.8s7.5,16.8,16.8,16.8,16.8-7.5,16.8-16.8-7.5-16.8-16.8-16.8ZM134.2,170.8c-6.3,0-11.3-5.1-11.3-11.3s5.1-11.3,11.3-11.3,11.3,5.1,11.3,11.3-5.1,11.3-11.3,11.3Z"/>
  <path class="cls-2" d="M216.4,142.6c-9.3,0-16.8,7.5-16.8,16.8s7.5,16.8,16.8,16.8,16.8-7.5,16.8-16.8-7.5-16.8-16.8-16.8ZM216.4,170.8c-6.3,0-11.3-5.1-11.3-11.3s5.1-11.3,11.3-11.3,11.3,5.1,11.3,11.3-5.1,11.3-11.3,11.3Z"/>
  <path class="cls-2" d="M370.3,142.6c-9.3,0-16.8,7.5-16.8,16.8s7.5,16.8,16.8,16.8,16.8-7.5,16.8-16.8-7.5-16.8-16.8-16.8ZM370.3,170.8c-6.3,0-11.3-5.1-11.3-11.3s5.1-11.3,11.3-11.3,11.3,5.1,11.3,11.3-5.1,11.3-11.3,11.3Z"/>
  <rect class="cls-2" x="154.5" y="169.8" width="6.2" height="6.2"/>
  <rect class="cls-2" x="311.9" y="169.8" width="6.2" height="6.2"/>
  <polygon class="cls-2" points="306.6 148.7 306.6 142.8 295.1 142.8 288.8 142.8 288.8 148.7 288.8 155.9 288.8 161.8 288.8 169.5 288.8 175.4 295.1 175.4 306.6 175.4 306.6 169.5 295.1 169.5 295.1 161.8 306.6 161.8 306.6 155.9 295.1 155.9 295.1 148.7 306.6 148.7"/>
  <polygon class="cls-2" points="460.6 148.7 460.6 142.8 449.1 142.8 442.7 142.8 442.7 148.7 442.7 155.9 442.7 161.8 442.7 169.5 442.7 175.4 449.1 175.4 460.6 175.4 460.6 169.5 449.1 169.5 449.1 161.8 460.6 161.8 460.6 155.9 449.1 155.9 449.1 148.7 460.6 148.7"/>
  <path class="cls-2" d="M195.2,169.3l-10.7-26.3h-4.9l-11,26.8h-4.5v12h5.4v-6.5h25.3l.5,6.8h4.3v-12.7h-4.3ZM174.5,169.8l7.3-17.9,7.6,17.9h-14.9Z"/>
  <path class="cls-2" d="M258.4,160.5c-2.8-6.5-14.5-5.4-14.5-5.4v-6.4h13.5v-5.5h-19.7v32.1c23.7,2.7,23.5-8.3,20.7-14.8ZM252.1,168.4c-1.2,1.9-8.2,1.5-8.2,1.5v-9c2.3-.3,4.8,0,6.2.4.8.2,1.6.6,2.1,1.2,1.6,1.8.9,4.3-.1,5.9Z"/>
  <path class="cls-2" d="M284.5,153.1c-1-11.6-6.8-9.7-20.7-10v32.2h6.2v-12.3s15.5,1.7,14.4-9.9ZM270,157.5v-8.8s8.4-1.8,8.8,3.9c.4,5.8-8.8,4.9-8.8,4.9Z"/>
  <path class="cls-2" d="M336.9,143.2c-4-.8-12.8,0-12.8,0v32.2s22.8,4.1,25.6-11.7c2.8-15.8-8.8-19.7-12.8-20.5ZM330.3,169.8v-21.1s1.1-.5,7.6.9c6.5,1.4,6.4,8.5,6.4,8.5,1.5,13.7-13.9,11.8-13.9,11.8Z"/>
  <path class="cls-2" d="M412.5,165s-.3-6.1-5.4-7.1c0,0,5.8-4.6,2.3-10.8,0,0-1.8-5.7-17.7-3.9v32.2s21.7,2.9,20.8-10.4ZM397.5,148.9c6.3-.8,7.3,2.1,7.3,2.1,1,5.7-7.3,4.6-7.3,4.6v-6.7ZM406.8,166c-1.2,5.8-9.3,3.7-9.3,3.7v-8.3c9.6-1.8,9.3,4.6,9.3,4.6Z"/>
  <path class="cls-2" d="M430.2,163.7s9.5-2.5,8.5-9.8c-.7-5.1-2.2-13.2-21.8-10.7v32.1h6.4v-12.1l8.2,12.1h7.7l-9.1-11.5ZM423.1,158.3v-9.3c10.4-1.7,9.7,4.4,9.7,4.4,0,7.2-9.7,4.9-9.7,4.9Z"/>
  <polygon class="cls-2" points="464.1 142.9 470.7 142.9 478.1 154.2 486 142.9 492.7 142.9 482 158.6 492.7 175.4 485.6 175.4 478.4 164 471.1 175.4 463.4 175.2 474.8 159.1 464.1 142.9"/>
</svg>