<?xml version="1.0" encoding="UTF-8"?>
<svg id="_Шар_1" data-name="Шар_1" xmlns="http://www.w3.org/2000/svg" viewBox="0 0 376.2 342.2">
  <defs>
    <style>
      .cls-1 {
        fill: #fff;
        filter: url(#shadow);
      }
    </style>
    <filter id="shadow" x="-20%" y="-20%" width="150%" height="150%">
      <feDropShadow dx="2" dy="2" stdDeviation="3" flood-color="black" flood-opacity="0.6"/>
    </filter>
  </defs>
  
  <g>
    <path class="cls-1" d="M8,30.7h12.5s-4.2,27.4,4.4,29.1h15.7v-29.1h12.3v63.8h-12.2v-23.9s-27.8,7.3-32.1-10.6l-.7-29.3Z"/>
    <polygon class="cls-1" points="65.1 30.7 77 30.7 77 75.9 105.2 30.7 118.3 30.7 118.3 95.1 105.4 95.1 105.4 50.4 78 95.1 65.1 95.1 65.1 30.7"/>
    <path class="cls-1" d="M177.5,48.7h13.9s-7.4-19.3-28.5-19.3-36.3,14.4-36.6,35.7c-.3,21.3,38.5,49.9,65.1,12.2l-14.4-.3s-6.8,9-20,7.4-25.5-20.4-13.2-35.4c12.3-15,27.7-6.7,33.7-.3Z"/>
    <polygon class="cls-1" points="194.5 30.7 231.3 30.7 231.3 41.3 219.4 41.3 219.4 95.1 206.4 95.1 206.4 41.7 195.1 41.7 194.5 30.7"/>
    <path class="cls-1" d="M266.5,29.4c-18.7,0-33.8,15.2-33.8,33.8s15.1,33.8,33.8,33.8,33.8-15.1,33.8-33.8-15.1-33.8-33.8-33.8ZM266.5,86c-12.6,0-22.8-10.2-22.8-22.8s10.2-22.8,22.8-22.8,22.8,10.2,22.8,22.8-10.2,22.8-22.8,22.8Z"/>
    <rect class="cls-1" x="307.1" y="84" width="12.4" height="12.4"/>
  </g>
  
  <g>
    <path class="cls-1" d="M113.1,130.5c-18.7,0-33.8,15.2-33.8,33.8s15.1,33.8,33.8,33.8,33.8-15.1,33.8-33.8-15.1-33.8-33.8-33.8ZM113.1,187.2c-12.6,0-22.8-10.2-22.8-22.8s10.2-22.8,22.8-22.8,22.8,10.2,22.8,22.8-10.2,22.8-22.8,22.8Z"/>
    <rect class="cls-1" x="305.2" y="185.2" width="12.4" height="12.4"/>
    <polygon class="cls-1" points="294.5 142.7 294.5 130.9 271.3 130.9 258.6 130.9 258.6 142.7 258.6 157.2 258.6 169 258.6 184.5 258.6 196.3 271.3 196.3 294.5 196.3 294.5 184.5 271.3 184.5 271.3 169 294.5 169 294.5 157.2 271.3 157.2 271.3 142.7 294.5 142.7"/>
    <path class="cls-1" d="M70.5,184.1l-21.6-52.8h-9.7l-22.1,53.8h-9.1v24h10.8v-13.1h50.8l1,13.7h8.6v-25.6h-8.7ZM29,185.2l14.7-36,15.3,36h-30Z"/>
    <path class="cls-1" d="M197.7,166.5c-5.6-13.1-29.1-10.8-29.1-10.8v-12.9h27.2v-11.1h-39.6v64.6c47.6,5.4,47.2-16.6,41.6-29.7ZM185,182.3c-2.5,3.8-16.5,3-16.5,3v-18c4.6-.6,9.7.2,12.4.7,1.6.4,3.2,1.2,4.3,2.4,3.2,3.6,1.8,8.7-.2,11.9Z"/>
    <path class="cls-1" d="M250.1,151.6c-2.1-23.3-13.7-19.5-41.6-20v64.7h12.5v-24.7s31.1,3.3,29-19.9ZM220.8,160.3v-17.8s16.8-3.7,17.6,7.9c.8,11.6-17.6,9.8-17.6,9.8Z"/>
  </g>
  
  <g>
    <path class="cls-1" d="M100.8,245.1c-18.7,0-33.8,15.2-33.8,33.8s15.1,33.8,33.8,33.8,33.8-15.1,33.8-33.8-15.1-33.8-33.8-33.8ZM100.8,301.8c-12.6,0-22.8-10.2-22.8-22.8s10.2-22.8,22.8-22.8,22.8,10.2,22.8,22.8-10.2,22.8-22.8,22.8Z"/>
    <polygon class="cls-1" points="282.2 257.3 282.2 245.5 259.1 245.5 246.4 245.5 246.4 257.3 246.4 271.8 246.4 283.6 246.4 299.1 246.4 310.9 259.1 310.9 282.2 310.9 282.2 299.1 259.1 299.1 259.1 283.6 282.2 283.6 282.2 271.8 259.1 271.8 259.1 257.3 282.2 257.3"/>
    <path class="cls-1" d="M33.7,246.3c-8-1.6-25.7,0-25.7,0v64.6s45.9,8.3,51.5-23.5c5.6-31.8-17.8-39.6-25.7-41.2ZM20.4,299.8v-42.4s2.1-1,15.2,1.8c13.1,2.8,12.8,17,12.8,17,3,27.6-28,23.7-28,23.7Z"/>
    <path class="cls-1" d="M185.6,290.1s-.6-12.3-10.9-14.2c0,0,11.7-9.1,4.7-21.7,0,0-3.5-11.4-35.6-7.9v64.6s43.6,5.8,41.8-20.9ZM155.5,257.6c12.7-1.6,14.6,4.3,14.6,4.3,2,11.4-14.6,9.1-14.6,9.1v-13.5ZM174.1,292c-2.4,11.6-18.6,7.4-18.6,7.4v-16.7c19.2-3.5,18.6,9.2,18.6,9.2Z"/>
    <path class="cls-1" d="M221.2,287.4s19.1-5.1,17.2-19.7c-1.4-10.3-4.4-26.5-43.8-21.6v64.5h12.9v-24.3l16.6,24.3h15.4l-18.2-23.2ZM206.9,276.6v-18.7c20.8-3.4,19.4,8.8,19.4,8.8,0,14.5-19.4,9.8-19.4,9.8Z"/>
    <polygon class="cls-1" points="289.3 245.7 302.6 245.7 317.4 268.3 333.2 245.7 346.8 245.7 325.2 277.3 346.8 310.9 332.6 310.9 318.1 288.2 303.5 310.9 287.9 310.6 310.8 278.2 289.3 245.7"/>
  </g>
</svg>
