<?xml version="1.0" encoding="UTF-8"?>
<svg id="_Шар_1" data-name="Шар_1" xmlns="http://www.w3.org/2000/svg" viewBox="0 0 376.2 342.2">
  <defs>
    <style>
      .cls-1 {
        fill: #fff;
      }
    </style>
  </defs>
  <g>
    <path class="cls-1" d="M20.7,56.3h12.5s-4.2,27.4,4.4,29.1h15.7v-29.1h12.3v63.8h-12.2v-23.9s-27.8,7.3-32.1-10.6l-.7-29.3Z"/>
    <polygon class="cls-1" points="77.8 56.3 89.7 56.3 89.7 101.6 117.9 56.3 131 56.3 131 120.8 118 120.8 118 76.1 90.7 120.8 77.8 120.8 77.8 56.3"/>
    <path class="cls-1" d="M190.2,74.4h13.9s-7.4-19.3-28.5-19.3-36.3,14.4-36.6,35.7c-.3,21.3,38.5,49.9,65.1,12.2l-14.4-.3s-6.8,9-20,7.4c-13.2-1.6-25.5-20.4-13.2-35.4,12.3-15,27.7-6.7,33.7-.3Z"/>
    <polygon class="cls-1" points="207.1 56.3 244 56.3 244 66.9 232.1 66.9 232.1 120.8 219 120.8 219 67.3 207.8 67.3 207.1 56.3"/>
    <path class="cls-1" d="M279.1,55c-18.7,0-33.8,15.2-33.8,33.8s15.1,33.8,33.8,33.8,33.8-15.1,33.8-33.8-15.1-33.8-33.8-33.8ZM279.1,111.7c-12.6,0-22.8-10.2-22.8-22.8s10.2-22.8,22.8-22.8,22.8,10.2,22.8,22.8-10.2,22.8-22.8,22.8Z"/>
    <rect class="cls-1" x="319.8" y="109.7" width="12.4" height="12.4"/>
  </g>
  <g>
    <path class="cls-1" d="M123.8,131.5c-18.7,0-33.8,15.2-33.8,33.8s15.1,33.8,33.8,33.8,33.8-15.1,33.8-33.8-15.1-33.8-33.8-33.8ZM123.8,188.2c-12.6,0-22.8-10.2-22.8-22.8s10.2-22.8,22.8-22.8,22.8,10.2,22.8,22.8-10.2,22.8-22.8,22.8Z"/>
    <rect class="cls-1" x="315.8" y="186.1" width="12.4" height="12.4"/>
    <polygon class="cls-1" points="305.1 143.7 305.1 131.9 282 131.9 269.3 131.9 269.3 143.7 269.3 158.1 269.3 170 269.3 185.4 269.3 197.3 282 197.3 305.1 197.3 305.1 185.4 282 185.4 282 170 305.1 170 305.1 158.1 282 158.1 282 143.7 305.1 143.7"/>
    <path class="cls-1" d="M81.2,185.1l-21.6-52.8h-9.7l-22.1,53.8h-9.1v24h10.8v-13.1h50.8l1,13.7h8.6v-25.6h-8.7ZM39.6,186.1l14.7-36,15.3,36h-30Z"/>
    <path class="cls-1" d="M208.3,167.5c-5.6-13.1-29.1-10.8-29.1-10.8v-12.9h27.2v-11.1h-39.6v64.6c47.6,5.4,47.2-16.6,41.6-29.7ZM195.6,183.3c-2.5,3.8-16.5,3-16.5,3v-18c4.6-.6,9.7.2,12.4.7,1.6.4,3.2,1.2,4.3,2.4,3.2,3.6,1.8,8.7-.2,11.9Z"/>
    <path class="cls-1" d="M260.8,152.6c-2.1-23.3-13.7-19.5-41.6-20v64.7h12.5v-24.7s31.1,3.3,29-19.9ZM231.5,161.3v-17.8s16.8-3.7,17.6,7.9c.8,11.6-17.6,9.8-17.6,9.8Z"/>
  </g>
  <g>
    <path class="cls-1" d="M111.5,219.5c-18.7,0-33.8,15.2-33.8,33.8s15.1,33.8,33.8,33.8,33.8-15.1,33.8-33.8-15.1-33.8-33.8-33.8ZM111.5,276.1c-12.6,0-22.8-10.2-22.8-22.8s10.2-22.8,22.8-22.8,22.8,10.2,22.8,22.8-10.2,22.8-22.8,22.8Z"/>
    <polygon class="cls-1" points="292.9 231.7 292.9 219.8 269.7 219.8 257 219.8 257 231.7 257 246.1 257 258 257 273.4 257 285.3 269.7 285.3 292.9 285.3 292.9 273.4 269.7 273.4 269.7 258 292.9 258 292.9 246.1 269.7 246.1 269.7 231.7 292.9 231.7"/>
    <path class="cls-1" d="M44.4,220.6c-8-1.6-25.7,0-25.7,0v64.6s45.9,8.3,51.5-23.5c5.6-31.8-17.8-39.6-25.7-41.2ZM31.1,274.1v-42.4s2.1-1,15.2,1.8c13.1,2.8,12.8,17,12.8,17,3,27.6-28,23.7-28,23.7Z"/>
    <path class="cls-1" d="M196.3,264.5s-.6-12.3-10.9-14.2c0,0,11.7-9.1,4.7-21.7,0,0-3.5-11.4-35.6-7.9v64.6s43.6,5.8,41.8-20.9ZM166.2,232c12.7-1.6,14.6,4.3,14.6,4.3,2,11.4-14.6,9.1-14.6,9.1v-13.5ZM184.8,266.3c-2.4,11.6-18.6,7.4-18.6,7.4v-16.7c19.2-3.5,18.6,9.2,18.6,9.2Z"/>
    <path class="cls-1" d="M231.8,261.8s19.1-5.1,17.2-19.7c-1.4-10.3-4.4-26.5-43.8-21.6v64.5h12.9v-24.3l16.6,24.3h15.4l-18.2-23.2ZM217.6,250.9v-18.7c20.8-3.4,19.4,8.8,19.4,8.8,0,14.5-19.4,9.8-19.4,9.8Z"/>
    <polygon class="cls-1" points="300 220 313.2 220 328.1 242.6 343.9 220 357.5 220 335.9 251.6 357.5 285.3 343.2 285.3 328.8 262.5 314.1 285.3 298.6 284.9 321.4 252.6 300 220"/>
  </g>
</svg>